<?xml version="1.0" standalone="no"?>
<!DOCTYPE svg PUBLIC "-//W3C//DTD SVG 20010904//EN"
 "http://www.w3.org/TR/2001/REC-SVG-20010904/DTD/svg10.dtd">
<svg version="1.0" xmlns="http://www.w3.org/2000/svg"
 width="800.000000pt" height="600.000000pt" viewBox="0 0 800.000000 600.000000"
 preserveAspectRatio="xMidYMid meet">

<g transform="translate(0.000000,600.000000) scale(0.100000,-0.100000)"
fill="#000000" stroke="none">
<path d="M3090 4564 c0 -7 26 -41 58 -76 31 -36 71 -82 89 -104 17 -21 54 -67
82 -100 28 -34 51 -64 51 -67 0 -3 -24 -10 -52 -16 -60 -13 -223 -58 -253 -71
-26 -10 -228 -70 -239 -70 -4 0 -6 7 -2 15 3 9 0 15 -9 15 -8 0 -15 -9 -15
-20 0 -15 7 -20 27 -20 26 0 222 54 253 70 9 4 31 11 50 15 19 4 60 15 90 25
30 10 74 21 98 25 37 6 42 4 42 -12 0 -19 -23 -118 -70 -308 -15 -60 -38 -153
-50 -205 -12 -52 -44 -162 -70 -245 -26 -82 -50 -161 -53 -175 -5 -25 -48
-146 -65 -185 -5 -11 -15 -38 -22 -59 -7 -22 -32 -81 -56 -130 -24 -50 -44
-97 -44 -103 0 -24 29 -13 44 15 51 98 263 329 495 540 62 56 117 102 122 102
10 0 -14 -57 -48 -112 -13 -21 -23 -40 -23 -42 0 -20 -92 -121 -125 -138 -110
-56 -208 -138 -164 -138 22 0 121 55 152 85 44 43 110 85 190 123 164 78 194
91 219 97 33 8 31 11 48 -105 46 -323 81 -466 122 -502 26 -23 75 -23 115 1
31 19 191 169 284 266 46 48 61 67 139 170 19 25 56 72 83 104 26 33 47 62 47
66 0 4 13 24 28 44 29 37 82 140 113 221 l17 45 94 0 c72 -1 103 -5 136 -21
l44 -21 -32 -26 c-17 -15 -36 -27 -41 -27 -12 0 -307 -296 -328 -329 -9 -15
-50 -69 -92 -121 -41 -52 -84 -109 -95 -126 -10 -18 -43 -67 -73 -109 -29 -43
-75 -115 -101 -159 -26 -45 -72 -121 -102 -171 l-55 -90 -87 -3 c-150 -5 -349
27 -569 92 -51 15 -112 26 -148 26 l-60 0 6 -172 c10 -268 51 -538 106 -688
11 -30 33 -98 50 -150 35 -109 69 -199 82 -217 15 -21 46 -15 73 14 25 27 172
318 278 553 45 98 261 493 281 514 8 7 38 16 67 20 29 4 85 16 123 28 39 11
84 23 100 27 17 5 50 17 75 28 25 12 63 28 85 38 94 39 284 169 370 253 92 89
131 138 163 204 54 110 63 148 69 283 5 127 5 132 -21 183 -14 28 -40 67 -57
86 -17 20 -28 40 -24 46 3 5 27 22 53 36 26 15 58 34 72 43 70 47 80 47 213
-2 210 -79 378 -117 515 -117 106 0 122 8 122 62 0 35 -6 47 -40 80 -86 81
-168 108 -345 115 -123 5 -151 3 -225 -16 -47 -12 -95 -29 -107 -37 -44 -28
-64 -21 -368 131 -115 57 -120 61 -125 95 l-5 35 -66 6 c-41 3 -79 13 -100 26
-19 12 -70 42 -114 68 -67 40 -190 113 -453 272 -21 12 -48 28 -62 35 -14 7
-58 32 -98 55 -105 62 -188 93 -263 100 -96 8 -154 -3 -193 -38 -38 -33 -114
-177 -123 -233 -3 -20 -9 -36 -13 -36 -4 0 -29 26 -54 58 -26 31 -61 75 -79
96 -57 70 -157 171 -157 160z m671 -30 c30 -9 59 -20 64 -24 6 -4 20 -11 33
-15 24 -7 74 -35 377 -215 99 -59 225 -133 280 -165 133 -77 176 -106 170
-115 -3 -4 -35 -13 -72 -20 -81 -15 -288 -81 -358 -114 -27 -13 -70 -33 -95
-45 -88 -41 -186 -97 -273 -155 -48 -32 -89 -57 -91 -55 -4 4 -36 174 -51 264
-27 164 -73 285 -124 323 -26 19 -42 22 -126 22 -95 0 -95 0 -95 25 0 27 51
149 86 205 59 95 147 122 275 84z m-155 -351 c33 -24 94 -133 94 -165 0 -7 9
-51 19 -98 53 -235 66 -340 41 -340 -4 0 -30 -18 -56 -40 -27 -22 -51 -40 -54
-40 -3 0 -5 62 -5 138 0 128 -2 142 -29 206 -33 82 -30 77 -97 191 -29 50 -57
92 -61 93 -10 5 -38 57 -38 72 0 6 30 10 76 10 66 0 80 -3 110 -27z m-196 -23
c7 -17 18 -34 24 -38 16 -9 75 -101 119 -182 60 -112 87 -207 87 -303 0 -151
13 -130 -194 -315 -60 -53 -153 -142 -205 -197 -53 -55 -109 -113 -125 -130
-16 -16 -52 -58 -79 -92 -27 -35 -51 -63 -53 -63 -2 0 5 17 16 38 17 33 46
106 81 202 6 19 20 56 31 82 10 26 18 53 18 61 0 7 24 90 54 183 29 93 61 203
71 244 9 41 30 127 45 190 27 113 63 269 75 323 7 35 20 34 35 -3z m1377 -207
c64 -38 64 -38 60 -78 -4 -42 -40 -169 -62 -221 -12 -29 -17 -31 -101 -42 -49
-7 -120 -21 -159 -33 -245 -71 -479 -152 -580 -199 -33 -16 -72 -32 -86 -35
-25 -6 -27 -4 -37 52 -6 32 -14 87 -18 123 l-6 65 98 64 c248 161 535 280 823
340 3 1 33 -16 68 -36z m54 27 c21 -12 26 -40 7 -40 -7 0 -26 11 -43 25 -29
23 -29 24 -7 25 13 0 32 -5 43 -10z m243 -179 c108 -52 196 -97 196 -101 0 -3
-12 -11 -27 -18 -16 -7 -53 -28 -83 -47 -96 -60 -95 -60 -137 -39 -26 12 -68
19 -135 22 -54 2 -98 7 -98 10 0 3 13 53 29 111 16 58 32 119 36 134 3 16 10
27 14 25 5 -2 97 -45 205 -97z m775 -46 c93 -34 174 -90 200 -139 13 -24 12
-28 -9 -51 -21 -22 -32 -25 -92 -25 -108 0 -308 47 -488 115 -36 13 -78 29
-94 35 -28 10 -28 11 -10 24 16 11 116 45 179 60 43 11 271 -3 314 -19z
m-1102 -173 c-8 -42 -62 -152 -102 -210 -19 -28 -35 -54 -35 -58 0 -3 -21 -32
-47 -65 -27 -32 -64 -79 -83 -104 -77 -101 -92 -121 -144 -174 -96 -102 -230
-226 -279 -260 l-48 -32 -33 20 c-45 28 -67 98 -116 381 -42 242 -42 237 29
261 29 10 59 23 65 28 36 30 543 194 701 227 94 19 98 18 92 -14z m-956 -136
c16 -117 14 -127 -34 -141 -28 -9 -137 -58 -200 -90 -26 -14 -55 -25 -64 -25
-15 0 -14 2 3 23 29 33 124 214 124 235 0 13 133 113 145 109 5 -2 17 -52 26
-111z m1319 57 c18 -20 44 -62 58 -91 23 -50 24 -63 19 -156 -4 -74 -12 -120
-32 -174 -27 -75 -73 -161 -104 -197 -59 -67 -183 -180 -233 -212 -195 -126
-178 -117 -348 -188 -30 -13 -82 -31 -115 -40 -33 -9 -71 -20 -85 -25 -14 -5
-45 -11 -69 -14 -51 -8 -51 -9 10 91 23 37 63 104 89 149 26 44 72 116 101
159 30 42 63 91 73 109 11 17 54 74 95 126 42 52 83 106 92 120 24 37 276 290
337 338 30 23 60 42 67 42 7 0 28 -17 45 -37z m-1780 -438 c-7 -8 -18 -15 -24
-15 -6 0 -2 7 8 15 25 19 32 19 16 0z m87 -570 c21 -8 56 -19 78 -24 22 -6 67
-17 100 -26 113 -29 230 -46 378 -52 81 -3 147 -9 147 -12 0 -3 -25 -49 -54
-101 -47 -82 -118 -215 -210 -395 -14 -27 -50 -102 -80 -165 -127 -271 -156
-328 -191 -372 -20 -27 -40 -48 -45 -48 -16 0 -35 47 -103 250 -92 275 -95
290 -131 545 -16 118 -29 398 -19 409 12 11 92 6 130 -9z"/>
</g>
</svg>
