<?xml version="1.0" encoding="UTF-8" ?>
<!DOCTYPE svg PUBLIC "-//W3C//DTD SVG 1.1//EN" "http://www.w3.org/Graphics/SVG/1.1/DTD/svg11.dtd">
<svg width="512pt" height="512pt" viewBox="0 0 512 512" version="1.1" xmlns="http://www.w3.org/2000/svg">
<path fill="#ffffff" d=" M 0.00 0.00 L 512.00 0.00 L 512.00 512.00 L 0.00 512.00 L 0.00 0.00 Z" />
<path fill="#6dad43" d=" M 217.57 36.55 C 230.27 30.06 243.25 24.10 255.97 17.62 C 259.73 19.95 264.18 20.75 268.00 22.99 C 335.75 57.33 403.57 91.54 471.49 125.56 C 444.80 139.65 417.69 152.92 390.93 166.87 C 381.12 171.71 371.67 177.24 361.68 181.70 C 352.18 186.46 342.58 191.02 333.34 196.26 C 323.60 201.25 313.75 206.01 304.01 211.00 C 288.57 219.47 272.78 227.30 257.10 235.32 C 256.61 251.36 257.18 267.38 258.11 283.40 C 257.80 283.61 257.18 284.03 256.87 284.24 C 256.84 278.87 256.90 273.50 256.93 268.14 C 252.40 265.94 247.77 263.95 243.07 262.16 C 243.00 267.18 242.89 272.20 242.33 277.19 C 234.50 273.70 227.08 269.34 219.36 265.60 C 217.91 264.76 216.18 264.22 215.10 262.90 C 214.73 257.87 215.43 252.84 215.56 247.82 C 211.08 245.73 206.47 243.94 201.85 242.19 C 201.75 247.40 201.90 252.61 201.69 257.81 C 197.37 255.84 193.22 253.55 188.93 251.52 C 188.57 256.81 188.39 262.11 188.04 267.41 C 183.53 265.37 179.12 263.14 174.75 260.83 C 174.62 255.32 175.01 249.82 174.81 244.31 C 170.33 241.87 165.80 239.50 161.14 237.42 C 161.00 242.72 161.12 248.01 160.96 253.31 C 156.30 251.35 151.67 249.30 147.22 246.90 C 146.84 235.72 147.09 224.52 146.54 213.35 C 142.43 211.52 138.23 209.94 133.97 208.52 C 133.82 213.38 133.84 218.25 133.64 223.11 C 129.09 221.06 124.51 219.05 120.04 216.84 C 119.79 205.65 120.30 194.47 119.94 183.28 C 115.51 181.23 111.04 179.24 106.51 177.41 C 105.56 193.57 106.35 209.79 105.83 225.97 C 101.49 224.05 97.26 221.90 93.03 219.75 C 92.83 214.20 92.97 208.65 92.83 203.11 C 84.06 197.96 74.41 194.48 65.64 189.37 C 64.44 183.91 66.23 178.05 65.85 172.42 C 61.29 170.60 56.76 168.68 52.21 166.85 C 52.25 171.98 52.47 177.11 52.48 182.24 C 47.81 180.60 43.24 178.72 38.75 176.64 C 38.88 160.38 38.81 144.12 38.80 127.86 C 38.56 126.25 39.72 124.78 41.14 124.19 C 93.72 98.05 146.39 72.10 198.90 45.83 C 205.18 42.85 211.44 39.84 217.57 36.55 Z" />
<path fill="#518f27" d=" M 390.93 166.87 C 417.69 152.92 444.80 139.65 471.49 125.56 L 472.24 125.15 C 472.39 125.61 472.69 126.53 472.84 127.00 C 472.90 137.95 472.93 148.91 472.95 159.87 C 468.91 162.06 464.82 164.15 460.76 166.30 C 460.53 171.33 460.92 176.37 460.72 181.41 C 451.68 186.06 442.83 191.13 433.51 195.21 C 433.15 190.14 433.07 185.05 432.77 179.97 C 428.35 181.88 424.05 184.02 419.76 186.17 C 419.65 191.95 419.97 197.73 419.72 203.50 C 415.24 206.11 410.50 208.23 406.12 210.99 C 406.17 216.04 406.34 221.08 406.43 226.13 C 401.69 228.58 396.81 230.76 391.84 232.70 C 391.89 227.12 392.48 221.57 392.79 216.01 C 388.26 218.70 383.17 220.66 379.14 224.07 C 378.85 229.02 379.62 233.95 379.92 238.88 C 375.17 241.78 370.05 243.97 364.96 246.18 C 364.59 235.62 364.71 225.04 364.13 214.49 C 359.82 216.35 355.57 218.36 351.47 220.65 C 351.24 226.13 351.40 231.62 351.37 237.11 C 347.18 239.62 342.69 241.54 338.20 243.41 C 337.75 232.72 337.79 222.00 337.01 211.32 C 332.69 213.16 328.42 215.09 324.17 217.07 C 323.99 233.95 324.42 250.84 324.01 267.71 C 319.68 269.48 315.18 270.77 310.64 271.83 C 310.53 267.08 310.52 262.33 310.24 257.59 C 303.64 260.46 297.47 264.19 290.93 267.15 C 287.96 267.24 285.32 268.45 283.33 270.65 L 283.02 270.85 C 282.81 265.98 282.95 261.07 282.19 256.25 C 281.98 256.12 281.57 255.85 281.37 255.71 C 277.48 257.26 273.76 259.18 269.99 260.97 C 269.83 266.54 270.15 272.11 269.91 277.68 C 266.01 279.66 262.02 281.44 258.11 283.40 C 257.18 267.38 256.61 251.36 257.10 235.32 C 272.78 227.30 288.57 219.47 304.01 211.00 C 313.75 206.01 323.60 201.25 333.34 196.26 C 342.58 191.02 352.18 186.46 361.68 181.70 C 371.67 177.24 381.12 171.71 390.93 166.87 Z" />
<path fill="#593d29" d=" M 460.76 166.30 C 464.82 164.15 468.91 162.06 472.95 159.87 C 473.23 236.53 473.51 313.18 473.82 389.84 C 473.88 391.60 471.78 392.03 470.60 392.76 C 470.09 393.00 469.08 393.48 468.58 393.72 C 468.08 393.97 467.08 394.48 466.58 394.73 C 466.08 394.98 465.08 395.48 464.58 395.73 C 464.08 395.98 463.09 396.49 462.59 396.74 C 408.29 424.06 353.87 451.13 299.61 478.51 C 293.67 481.76 287.68 484.95 281.42 487.56 C 273.21 491.51 265.19 495.86 257.00 499.87 C 257.11 473.58 257.00 447.28 257.05 420.99 C 257.08 387.67 257.48 354.35 257.22 321.03 C 257.78 308.76 256.65 296.51 256.87 284.24 C 257.18 284.03 257.80 283.61 258.11 283.40 C 262.02 281.44 266.01 279.66 269.91 277.68 C 270.15 272.11 269.83 266.54 269.99 260.97 C 273.76 259.18 277.48 257.26 281.37 255.71 C 281.57 255.85 281.98 256.12 282.19 256.25 C 282.95 261.07 282.81 265.98 283.02 270.85 L 283.33 270.65 C 285.95 269.69 288.49 268.52 290.93 267.15 C 297.47 264.19 303.64 260.46 310.24 257.59 C 310.52 262.33 310.53 267.08 310.64 271.83 C 315.18 270.77 319.68 269.48 324.01 267.71 C 324.42 250.84 323.99 233.95 324.17 217.07 C 328.42 215.09 332.69 213.16 337.01 211.32 C 337.79 222.00 337.75 232.72 338.20 243.41 C 342.69 241.54 347.18 239.62 351.37 237.11 C 351.40 231.62 351.24 226.13 351.47 220.65 C 355.57 218.36 359.82 216.35 364.13 214.49 C 364.71 225.04 364.59 235.62 364.96 246.18 C 370.05 243.97 375.17 241.78 379.92 238.88 C 379.62 233.95 378.85 229.02 379.14 224.07 C 383.17 220.66 388.26 218.70 392.79 216.01 C 392.48 221.57 391.89 227.12 391.84 232.70 C 396.81 230.76 401.69 228.58 406.43 226.13 C 406.34 221.08 406.17 216.04 406.12 210.99 C 410.50 208.23 415.24 206.11 419.72 203.50 C 419.97 197.73 419.65 191.95 419.76 186.17 C 424.05 184.02 428.35 181.88 432.77 179.97 C 433.07 185.05 433.15 190.14 433.51 195.21 C 442.83 191.13 451.68 186.06 460.72 181.41 C 460.92 176.37 460.53 171.33 460.76 166.30 Z" />
<path fill="#79553a" d=" M 52.21 166.85 C 56.76 168.68 61.29 170.60 65.85 172.42 C 66.23 178.05 64.44 183.91 65.64 189.37 C 74.41 194.48 84.06 197.96 92.83 203.11 C 92.97 208.65 92.83 214.20 93.03 219.75 C 97.26 221.90 101.49 224.05 105.83 225.97 C 106.35 209.79 105.56 193.57 106.51 177.41 C 111.04 179.24 115.51 181.23 119.94 183.28 C 120.30 194.47 119.79 205.65 120.04 216.84 C 124.51 219.05 129.09 221.06 133.64 223.11 C 133.84 218.25 133.82 213.38 133.97 208.52 C 138.23 209.94 142.43 211.52 146.54 213.35 C 147.09 224.52 146.84 235.72 147.22 246.90 C 151.67 249.30 156.30 251.35 160.96 253.31 C 161.12 248.01 161.00 242.72 161.14 237.42 C 165.80 239.50 170.33 241.87 174.81 244.31 C 175.01 249.82 174.62 255.32 174.75 260.83 C 179.12 263.14 183.53 265.37 188.04 267.41 C 188.39 262.11 188.57 256.81 188.93 251.52 C 193.22 253.55 197.37 255.84 201.69 257.81 C 201.90 252.61 201.75 247.40 201.85 242.19 C 206.47 243.94 211.08 245.73 215.56 247.82 C 215.43 252.84 214.73 257.87 215.10 262.90 C 216.18 264.22 217.91 264.76 219.36 265.60 C 227.08 269.34 234.50 273.70 242.33 277.19 C 242.89 272.20 243.00 267.18 243.07 262.16 C 247.77 263.95 252.40 265.94 256.93 268.14 C 256.90 273.50 256.84 278.87 256.87 284.24 C 256.65 296.51 257.78 308.76 257.22 321.03 C 257.48 354.35 257.08 387.67 257.05 420.99 C 257.00 447.28 257.11 473.58 257.00 499.87 C 255.70 500.51 254.52 499.13 253.32 498.76 C 251.12 497.46 248.74 496.52 246.53 495.26 C 229.83 487.02 213.08 478.89 196.54 470.35 C 173.93 458.99 151.10 448.05 128.64 436.39 C 113.33 428.71 97.89 421.31 82.61 413.56 C 76.01 410.71 69.41 407.74 63.35 403.84 C 55.25 399.74 47.06 395.81 38.89 391.86 C 38.76 338.58 38.74 285.30 38.52 232.02 C 38.84 213.56 38.25 195.09 38.75 176.64 C 43.24 178.72 47.81 180.60 52.48 182.24 C 52.47 177.11 52.25 171.98 52.21 166.85 Z" />
<path fill="#6dad43" d=" M 283.33 270.65 C 285.32 268.45 287.96 267.24 290.93 267.15 C 288.49 268.52 285.95 269.69 283.33 270.65 Z" />
</svg>
