<svg id="svg" version="1.1" width="512" height="512" xmlns="http://www.w3.org/2000/svg" xmlns:xlink="http://www.w3.org/1999/xlink" style="display: block;"><g id="svgg"><path id="path0" d="M178.516 21.222 C 110.119 28.943,50.178 77.616,28.582 142.969 C -9.659 258.697,73.720 376.980,195.703 380.050 L 208.203 380.365 197.266 379.696 C 170.094 378.037,148.830 369.957,129.297 353.870 C 120.678 346.772,108.594 333.222,108.594 330.657 C 108.594 330.073,108.307 329.773,107.956 329.990 C 106.226 331.058,87.901 314.733,78.486 303.736 C 28.638 245.513,27.272 159.825,75.246 100.391 C 102.214 66.981,140.475 46.311,183.761 41.769 L 188.224 41.301 193.917 31.418 C 197.048 25.982,199.727 21.260,199.870 20.924 C 200.209 20.127,186.521 20.319,178.516 21.222 M200.911 20.924 C 204.220 28.689,212.883 41.394,215.082 41.707 C 238.421 45.028,246.480 47.137,261.915 53.958 C 361.886 98.140,390.245 224.325,318.427 305.408 C 311.634 313.076,298.262 325.465,295.253 326.877 C 294.426 327.265,293.750 327.924,293.750 328.340 C 293.750 329.606,287.193 338.349,282.028 343.971 C 264.693 362.836,240.747 375.143,214.063 378.901 C 209.281 379.574,209.401 379.594,216.127 379.239 C 267.960 376.506,324.159 341.313,353.037 293.504 C 420.995 180.997,349.115 35.612,218.359 21.105 C 209.940 20.171,200.549 20.073,200.911 20.924 " stroke="none" fill="#fefefe" fill-rule="evenodd"></path><path id="path1" d="M194.212 31.070 C 190.883 36.970,187.892 42.324,187.565 42.969 C 187.238 43.613,182.566 52.051,177.182 61.719 C 128.418 149.298,98.483 215.842,91.305 252.619 C 86.787 275.769,92.165 303.614,105.338 325.275 C 107.129 328.219,108.594 330.874,108.594 331.174 C 108.594 333.272,121.601 347.531,129.297 353.870 C 201.505 413.339,310.855 362.704,311.030 269.718 C 311.094 235.788,281.708 165.895,223.578 61.719 C 218.183 52.051,213.253 43.086,212.621 41.797 C 211.251 39.000,202.505 23.621,201.189 21.695 C 200.392 20.530,199.433 21.819,194.212 31.070 M210.332 74.609 C 254.487 154.275,286.120 223.901,291.741 253.797 C 298.579 290.170,280.875 328.366,248.009 348.145 C 204.241 374.484,145.524 359.548,120.543 315.721 C 100.179 279.994,103.038 254.099,135.220 182.782 C 154.932 139.099,199.231 55.544,201.169 58.391 C 201.684 59.147,205.807 66.445,210.332 74.609 M326.172 72.656 C 328.288 74.805,330.195 76.563,330.410 76.563 C 330.625 76.563,329.069 74.805,326.953 72.656 C 324.837 70.508,322.930 68.750,322.715 68.750 C 322.500 68.750,324.056 70.508,326.172 72.656 M379.179 200.000 C 379.179 203.652,379.314 205.146,379.478 203.320 C 379.643 201.494,379.643 198.506,379.478 196.680 C 379.314 194.854,379.179 196.348,379.179 200.000 M326.157 327.539 L 318.359 335.547 326.367 327.749 C 330.771 323.460,334.375 319.857,334.375 319.741 C 334.375 319.176,333.400 320.101,326.157 327.539 " stroke="none" fill="#ffffff" fill-rule="evenodd"></path><path id="path2" d="M194.212 31.070 C 190.883 36.970,187.892 42.324,187.565 42.969 C 187.238 43.613,182.566 52.051,177.182 61.719 C 128.418 149.298,98.483 215.842,91.305 252.619 C 86.787 275.769,92.165 303.614,105.338 325.275 C 107.129 328.219,108.594 330.874,108.594 331.174 C 108.594 333.272,121.601 347.531,129.297 353.870 C 201.505 413.339,310.855 362.704,311.030 269.718 C 311.094 235.788,281.708 165.895,223.578 61.719 C 218.183 52.051,213.253 43.086,212.621 41.797 C 211.251 39.000,202.505 23.621,201.189 21.695 C 200.392 20.530,199.433 21.819,194.212 31.070 M210.332 74.609 C 254.487 154.275,286.120 223.901,291.741 253.797 C 298.579 290.170,280.875 328.366,248.009 348.145 C 204.241 374.484,145.524 359.548,120.543 315.721 C 100.179 279.994,103.038 254.099,135.220 182.782 C 154.932 139.099,199.231 55.544,201.169 58.391 C 201.684 59.147,205.807 66.445,210.332 74.609 M326.172 72.656 C 328.288 74.805,330.195 76.563,330.410 76.563 C 330.625 76.563,329.069 74.805,326.953 72.656 C 324.837 70.508,322.930 68.750,322.715 68.750 C 322.500 68.750,324.056 70.508,326.172 72.656 M379.179 200.000 C 379.179 203.652,379.314 205.146,379.478 203.320 C 379.643 201.494,379.643 198.506,379.478 196.680 C 379.314 194.854,379.179 196.348,379.179 200.000 M326.157 327.539 L 318.359 335.547 326.367 327.749 C 330.771 323.460,334.375 319.857,334.375 319.741 C 334.375 319.176,333.400 320.101,326.157 327.539 " stroke="none" fill="#ffffff" fill-rule="evenodd"></path><path id="path3" d="M194.212 31.070 C 190.883 36.970,187.892 42.324,187.565 42.969 C 187.238 43.613,182.566 52.051,177.182 61.719 C 128.418 149.298,98.483 215.842,91.305 252.619 C 86.787 275.769,92.165 303.614,105.338 325.275 C 107.129 328.219,108.594 330.874,108.594 331.174 C 108.594 333.272,121.601 347.531,129.297 353.870 C 201.505 413.339,310.855 362.704,311.030 269.718 C 311.094 235.788,281.708 165.895,223.578 61.719 C 218.183 52.051,213.253 43.086,212.621 41.797 C 211.251 39.000,202.505 23.621,201.189 21.695 C 200.392 20.530,199.433 21.819,194.212 31.070 M210.332 74.609 C 254.487 154.275,286.120 223.901,291.741 253.797 C 298.579 290.170,280.875 328.366,248.009 348.145 C 204.241 374.484,145.524 359.548,120.543 315.721 C 100.179 279.994,103.038 254.099,135.220 182.782 C 154.932 139.099,199.231 55.544,201.169 58.391 C 201.684 59.147,205.807 66.445,210.332 74.609 M326.172 72.656 C 328.288 74.805,330.195 76.563,330.410 76.563 C 330.625 76.563,329.069 74.805,326.953 72.656 C 324.837 70.508,322.930 68.750,322.715 68.750 C 322.500 68.750,324.056 70.508,326.172 72.656 M379.179 200.000 C 379.179 203.652,379.314 205.146,379.478 203.320 C 379.643 201.494,379.643 198.506,379.478 196.680 C 379.314 194.854,379.179 196.348,379.179 200.000 M326.157 327.539 L 318.359 335.547 326.367 327.749 C 330.771 323.460,334.375 319.857,334.375 319.741 C 334.375 319.176,333.400 320.101,326.157 327.539 " stroke="none" fill="#ffffff" fill-rule="evenodd"></path><path id="path4" d="M196.541 64.695 C 145.590 155.449,112.050 230.187,108.430 261.036 C 105.038 289.946,118.669 321.386,143.052 340.894 C 188.017 376.871,255.821 362.360,282.299 311.093 C 300.887 275.104,295.985 247.804,255.687 162.891 C 243.493 137.195,203.953 62.110,200.481 58.054 C 200.410 57.972,198.638 60.960,196.541 64.695 " stroke="none" fill="#3f71aa" fill-rule="evenodd"></path><path id="path5" d="M181.250 42.283 C 147.409 46.174,114.216 62.040,89.168 86.298 C 19.636 153.635,25.391 263.847,101.643 325.230 C 106.272 328.957,106.745 328.877,104.170 324.805 C 91.880 305.375,86.070 274.383,90.584 252.344 C 98.452 213.924,128.770 146.593,176.945 60.547 C 186.576 43.345,187.660 41.359,187.332 41.508 C 187.210 41.563,184.473 41.912,181.250 42.283 M214.063 42.651 C 214.063 42.905,218.229 50.552,223.322 59.643 C 271.954 146.454,302.293 213.749,310.198 252.344 C 314.275 272.249,310.384 297.734,300.154 318.130 L 296.351 325.713 301.105 321.653 C 396.687 240.023,366.654 88.741,246.961 48.912 C 234.393 44.729,214.063 40.860,214.063 42.651 " stroke="none" fill="#ccd3db" fill-rule="evenodd"></path><path id="path6" d="" stroke="none" fill="#d4dae1" fill-rule="evenodd"></path><path id="path7" d="M86.703 88.086 L 79.297 95.703 86.914 88.297 C 93.989 81.418,94.887 80.469,94.321 80.469 C 94.205 80.469,90.777 83.896,86.703 88.086 M311.328 88.281 C 313.444 90.430,315.351 92.188,315.566 92.188 C 315.781 92.188,314.226 90.430,312.109 88.281 C 309.993 86.133,308.086 84.375,307.871 84.375 C 307.656 84.375,309.212 86.133,311.328 88.281 M86.328 312.500 C 88.006 314.219,89.555 315.625,89.770 315.625 C 89.985 315.625,88.788 314.219,87.109 312.500 C 85.431 310.781,83.882 309.375,83.667 309.375 C 83.452 309.375,84.650 310.781,86.328 312.500 " stroke="none" fill="#dbe0e6" fill-rule="evenodd"></path><path id="path8" d="" stroke="none" fill="#e9ecef" fill-rule="evenodd"></path><path id="path9" d="M358.080 200.391 C 358.083 203.828,358.221 205.137,358.386 203.300 C 358.551 201.462,358.548 198.650,358.380 197.050 C 358.213 195.450,358.077 196.953,358.080 200.391 M310.938 312.891 C 309.040 314.824,307.663 316.406,307.878 316.406 C 308.093 316.406,309.821 314.824,311.719 312.891 C 313.616 310.957,314.993 309.375,314.778 309.375 C 314.564 309.375,312.835 310.957,310.938 312.891 " stroke="none" fill="#f2f4f5" fill-rule="evenodd"></path></g></svg>